<svg width="1728" height="296" viewBox="0 0 1728 296" fill="none" xmlns="http://www.w3.org/2000/svg">
<rect x="108" y="147.415" width="108" height="74.8775" fill="#FF701E"/>
<rect y="147.415" width="108" height="74.8775" fill="#00AEEF"/>
<rect x="324" y="147.415" width="108" height="74.8775" fill="#37328C"/>
<rect x="216" y="147.415" width="108" height="74.8775" fill="#B5007C"/>
<rect x="540" y="147.415" width="108" height="74.8775" fill="#048045"/>
<rect x="432" y="147.415" width="108" height="74.8775" fill="#78C143"/>
<rect x="756" y="147.415" width="108" height="74.8775" fill="#011E6E"/>
<rect x="648" y="147.415" width="108" height="74.8775" fill="#FF0000"/>
<rect x="972" y="147.415" width="108" height="74.8775" fill="#FFED00"/>
<rect x="864" y="147.415" width="108" height="74.8775" fill="#003F4D"/>
<rect x="1188" y="147.415" width="108" height="74.8775" fill="#131217"/>
<rect x="1080" y="147.415" width="108" height="74.8775" fill="#BA0210"/>
<rect x="1404" y="147.415" width="108" height="74.8775" fill="#3A2041"/>
<rect x="1296" y="147.415" width="108" height="74.8775" fill="#37328C"/>
<rect x="1620" y="147.415" width="108" height="74.8775" fill="#B10015"/>
<rect x="1512" y="147.415" width="108" height="74.8775" fill="#00AEEF"/>
<rect y="222.292" width="54" height="73.7075" fill="#FFA423"/>
<rect x="54" y="222.292" width="54" height="73.7075" fill="#00AEEF"/>
<rect x="162" y="222.292" width="54" height="73.7075" fill="#3A2041"/>
<rect x="216" y="222.292" width="54" height="73.7075" fill="#3E6CA7"/>
<rect x="270" y="222.292" width="54" height="73.7075" fill="#B5007C"/>
<rect x="324" y="222.292" width="54" height="73.7075" fill="#37328C"/>
<rect x="378" y="222.292" width="54" height="73.7075" fill="#F5D13C"/>
<rect x="432" y="222.292" width="54" height="73.7075" fill="#31C3D2"/>
<rect x="486" y="222.292" width="54" height="73.7075" fill="#78C143"/>
<rect x="540" y="222.292" width="54" height="73.7075" fill="#048045"/>
<rect x="594" y="222.292" width="54" height="73.7075" fill="#CF214A"/>
<rect x="648" y="222.292" width="54" height="73.7075" fill="#EC5419"/>
<rect x="702" y="222.292" width="54" height="73.7075" fill="#FF0000"/>
<rect x="756" y="222.292" width="54" height="73.7075" fill="#011E6E"/>
<rect x="810" y="222.292" width="54" height="73.7075" fill="#37328C"/>
<rect x="864" y="222.292" width="54" height="73.7075" fill="#52AE32"/>
<rect x="972" y="222.292" width="54" height="73.7075" fill="#FFED00"/>
<rect x="1026" y="222.292" width="54" height="73.7075" fill="#171719"/>
<rect x="1080" y="222.292" width="54" height="73.7075" fill="#FFA423"/>
<rect x="1134" y="222.292" width="54" height="73.7075" fill="#BA0210"/>
<rect x="1188" y="222.292" width="54" height="73.7075" fill="#131217"/>
<rect x="1242" y="222.292" width="54" height="73.7075" fill="#4298B8"/>
<rect x="1296" y="222.292" width="54" height="73.7075" fill="#FFA423"/>
<rect x="1350" y="222.292" width="54" height="73.7075" fill="#37328C"/>
<rect x="1404" y="222.292" width="54" height="73.7075" fill="#3A2041"/>
<rect x="1458" y="222.292" width="54" height="73.7075" fill="#B5007C"/>
<rect x="1512" y="222.292" width="54" height="73.7075" fill="#FBDD00"/>
<rect x="1566" y="222.292" width="54" height="73.7075" fill="#45BAE3"/>
<rect x="1620" y="222.292" width="54" height="73.7075" fill="#B10015"/>
<rect x="1674" y="222.292" width="54" height="73.7075" fill="#D596E7"/>
<path d="M0 0H1728V147.415H0V0Z" fill="#FFA423"/>
<path d="M222 73.7075C222 33 255 0 295.708 0H1728V147.415H295.708C255 147.415 222 114.415 222 73.7075Z" fill="#FFED00"/>
<ellipse cx="460.8" cy="73.7075" rx="52.8" ry="51.4783" fill="#3764F0"/>
<ellipse cx="646.8" cy="73.7075" rx="52.8" ry="51.4783" fill="#048045"/>
<ellipse cx="1324.8" cy="73.7075" rx="52.8" ry="51.4783" fill="#EC541D"/>
<ellipse cx="1473.6" cy="73.7075" rx="52.8" ry="51.4783" fill="#37328C"/>
<ellipse cx="1618.8" cy="73.7075" rx="52.8" ry="51.4783" fill="#FF0000"/>
<rect x="918" y="222.292" width="54" height="73.7075" fill="#003F4D"/>
<rect x="108" y="222.292" width="54" height="73.7075" fill="#FF701E"/>
<g filter="url(#filter0_d_448_5467)">
<rect x="803" y="18" width="376" height="112" rx="30" fill="#EC541D"/>
<g filter="url(#filter1_d_448_5467)">
<rect x="815" y="22" width="350" height="104" rx="30" fill="#FFED00"/>
</g>
<g filter="url(#filter2_d_448_5467)">
<path d="M860.584 41.8V67.24H865V72.808H860.584V109H854.248V41.8H860.584ZM862.12 41.8H868.456V60.712H862.12V41.8ZM876.696 109V41.8H883.032V109H876.696ZM891.268 109V41.8H897.604V109H891.268ZM899.14 41.8C903.556 41.896 905.38 44.2 905.38 49.768V109H899.14V41.8ZM913.622 109V41.8H919.958V109H913.622ZM921.494 41.8C925.91 41.896 927.734 44.2 927.734 49.768V101.704C927.734 106.696 925.91 108.808 921.494 109V41.8ZM956.697 41.512V109.384C952.185 109.384 950.361 107.272 950.361 102.088V49.48C950.361 43.816 952.185 41.512 956.697 41.512ZM958.233 41.512C962.745 41.608 964.569 43.912 964.569 49.48V102.088C964.569 107.08 962.745 109.192 958.233 109.384V41.512ZM979.048 109.384C974.632 109.288 972.808 106.984 972.808 101.416V41.8H979.048V109.384ZM980.584 109.384V41.8H986.824V101.416C986.824 106.984 985 109.288 980.584 109.384ZM1008.99 41.8V47.368H994.78V41.8H1008.99ZM998.716 109V48.808H1005.05V109H998.716ZM1031.34 41.8H1037.67V109H1031.34V41.8ZM1047.08 109V41.8H1053.32V109H1047.08ZM1039.21 58.12H1045.55V109H1039.21V58.12ZM1061.57 109V41.8H1067.9V109H1061.57ZM1069.44 109V41.8H1075.77V109H1069.44ZM1095.25 72.808H1090.35V109H1084.01V41.8H1090.35V67.24H1095.25V72.808ZM1091.89 41.8H1098.22V60.712H1091.89V41.8ZM1091.79 109V81.736H1098.13V109H1091.79ZM1106.46 109V41.8H1112.8V109H1106.46ZM1114.33 41.8C1118.75 41.896 1120.57 44.2 1120.57 49.768V109H1114.33V41.8Z" fill="#004F96"/>
</g>
</g>
<defs>
<filter id="filter0_d_448_5467" x="795" y="18" width="392" height="128" filterUnits="userSpaceOnUse" color-interpolation-filters="sRGB">
<feFlood flood-opacity="0" result="BackgroundImageFix"/>
<feColorMatrix in="SourceAlpha" type="matrix" values="0 0 0 0 0 0 0 0 0 0 0 0 0 0 0 0 0 0 127 0" result="hardAlpha"/>
<feOffset dy="8"/>
<feGaussianBlur stdDeviation="4"/>
<feComposite in2="hardAlpha" operator="out"/>
<feColorMatrix type="matrix" values="0 0 0 0 0 0 0 0 0 0 0 0 0 0 0 0 0 0 0.25 0"/>
<feBlend mode="normal" in2="BackgroundImageFix" result="effect1_dropShadow_448_5467"/>
<feBlend mode="normal" in="SourceGraphic" in2="effect1_dropShadow_448_5467" result="shape"/>
</filter>
<filter id="filter1_d_448_5467" x="811" y="22" width="358" height="112" filterUnits="userSpaceOnUse" color-interpolation-filters="sRGB">
<feFlood flood-opacity="0" result="BackgroundImageFix"/>
<feColorMatrix in="SourceAlpha" type="matrix" values="0 0 0 0 0 0 0 0 0 0 0 0 0 0 0 0 0 0 127 0" result="hardAlpha"/>
<feOffset dy="4"/>
<feGaussianBlur stdDeviation="2"/>
<feComposite in2="hardAlpha" operator="out"/>
<feColorMatrix type="matrix" values="0 0 0 0 0 0 0 0 0 0 0 0 0 0 0 0 0 0 0.25 0"/>
<feBlend mode="normal" in2="BackgroundImageFix" result="effect1_dropShadow_448_5467"/>
<feBlend mode="normal" in="SourceGraphic" in2="effect1_dropShadow_448_5467" result="shape"/>
</filter>
<filter id="filter2_d_448_5467" x="850.248" y="41.512" width="274.326" height="75.8721" filterUnits="userSpaceOnUse" color-interpolation-filters="sRGB">
<feFlood flood-opacity="0" result="BackgroundImageFix"/>
<feColorMatrix in="SourceAlpha" type="matrix" values="0 0 0 0 0 0 0 0 0 0 0 0 0 0 0 0 0 0 127 0" result="hardAlpha"/>
<feOffset dy="4"/>
<feGaussianBlur stdDeviation="2"/>
<feComposite in2="hardAlpha" operator="out"/>
<feColorMatrix type="matrix" values="0 0 0 0 0 0 0 0 0 0 0 0 0 0 0 0 0 0 0.25 0"/>
<feBlend mode="normal" in2="BackgroundImageFix" result="effect1_dropShadow_448_5467"/>
<feBlend mode="normal" in="SourceGraphic" in2="effect1_dropShadow_448_5467" result="shape"/>
</filter>
</defs>
</svg>
