<svg width="720" height="340" viewBox="0 0 720 340" fill="none" xmlns="http://www.w3.org/2000/svg">
<rect y="0.00012207" width="720" height="340" fill="#2B1309"/>
<rect x="18" y="340" width="18" height="340" transform="rotate(-180 18 340)" fill="#FF701E"/>
<path d="M18 284.143L18 340L1.66893e-06 284.143H18Z" fill="#2B1309"/>
<path d="M18 225.857L18 284.143L1.66893e-06 225.857H18Z" fill="#2B1309"/>
<path d="M18 170L18 225.857L1.66893e-06 170H18Z" fill="#2B1309"/>
<path d="M18 114.143L18 170L1.66893e-06 114.143H18Z" fill="#2B1309"/>
<path d="M18 57.0713L18 114.143L1.66893e-06 57.0713L18 57.0713Z" fill="#2B1309"/>
<path d="M18 1.98994e-05L18 57.0714L1.66893e-06 1.98994e-05L18 1.98994e-05Z" fill="#2B1309"/>
<path d="M59.0748 284.367C53.5967 285.021 46.1157 281.605 42.9751 280.006C42.2981 279.661 42.2845 278.746 42.9503 278.381C46.0436 276.681 53.4229 273.009 58.8532 273.365C64.1816 273.714 71.8384 278.608 71.8384 278.608C71.8384 278.608 64.5072 283.719 59.0748 284.367Z" fill="#FF668F"/>
<path d="M58.4323 278.013C53.1574 276.399 47.703 270.255 45.481 267.525C45.0021 266.937 45.3608 266.096 46.118 266.03C49.6361 265.724 57.8757 265.345 62.697 267.863C67.4275 270.333 72.4416 277.898 72.4416 277.898C72.4416 277.898 63.6628 279.613 58.4323 278.013Z" fill="#BA0210"/>
<path d="M71.6779 264.272C73.0661 258.948 78.9847 253.249 81.624 250.917C82.1929 250.414 83.0521 250.735 83.1508 251.487C83.6094 254.978 84.3464 263.169 82.0331 268.08C79.7632 272.899 72.3996 278.222 72.3996 278.222C72.3996 278.222 70.3013 269.552 71.6779 264.272Z" fill="#FF668F"/>
<path d="M65.5118 266.211C64.3853 260.826 67.1521 253.098 68.4787 249.841C68.7646 249.139 69.6767 249.047 70.0997 249.676C72.0649 252.602 76.3725 259.615 76.4863 265.041C76.5979 270.364 72.3693 278.392 72.3693 278.392C72.3693 278.392 66.6288 271.552 65.5118 266.211Z" fill="#BA0210"/>
<path d="M61.6631 271.657C58.0337 267.512 56.6473 259.424 56.2026 255.937C56.1068 255.185 56.856 254.659 57.5341 255.001C60.6847 256.591 67.8877 260.6 70.6537 265.273C73.3674 269.859 73.6279 278.923 73.6279 278.923C73.6279 278.923 65.2617 275.766 61.6631 271.657Z" fill="#FF668F"/>
<ellipse cx="3.67552" cy="3.67199" rx="3.67552" ry="3.67199" transform="matrix(0.815382 -0.578923 0.581184 0.813772 67.917 277.348)" fill="#048045"/>
<path d="M104.324 54.7731L96.401 49.0239L93.5221 39.6847L102.048 37.4126L111.653 41.965L111.05 49.9863L104.324 54.7731Z" fill="#FFED00" stroke="#00AEEF"/>
<path d="M201.875 55.8358L200 50.3519L201.875 44.868L206.875 46.696L210 52.1799L206.875 55.8358H201.875Z" fill="#FF701E" stroke="#B5007C" stroke-width="0.5"/>
<path d="M147.145 19.0394C149.734 19.95 149.959 20.5088 149.959 20.5088L153.561 18.6738L153.425 18.3357C153.425 18.3357 144.556 18.1287 147.145 19.0394Z" fill="#004F96"/>
<path d="M144.639 27.6944C143.522 28.7719 142.512 30.4597 142.802 31.1789C143.092 31.8982 145.029 32.7187 146.682 32.7667C148.58 32.822 150.867 31.091 150.867 31.091L150.824 27.9666L148.824 26.0185C148.824 26.0185 146.004 26.3766 144.639 27.6944Z" fill="#004F96"/>
<path d="M143.47 29.3901C143.47 29.3901 142.547 30.5452 142.819 31.2215C143.092 31.8978 144.56 32.0953 144.56 32.0953C144.56 32.0953 146.018 31.1187 145.61 30.1042C145.253 29.2184 143.47 29.3901 143.47 29.3901Z" fill="#004F96"/>
<path d="M148.976 36.4537C152.102 28.9241 151.755 25.6632 143.664 23.2656C143.664 23.2656 151.365 17.8824 156.918 17.9584C160.288 18.0046 164.769 20.0875 166.478 20.9465C166.893 21.1554 167.091 21.6234 166.95 22.0658C166.362 23.9158 164.67 28.7023 162.23 31.1466C158.312 35.0705 148.976 36.4537 148.976 36.4537Z" fill="#FFED00" stroke="#004F96"/>
<path d="M150.557 24.3063C149.634 22.8139 149.23 20.0155 149.23 20.0155L152.343 18.7689C152.343 18.7689 152.747 21.5673 153.67 23.0597C154.596 24.5571 156.032 24.6605 156.932 26.1734C158.512 28.8264 157.298 34.0633 157.298 34.0633L154.185 35.3099C154.185 35.3099 155.399 30.073 153.819 27.4199C152.918 25.9071 151.483 25.8037 150.557 24.3063Z" fill="#004F96"/>
<path d="M156.373 22.6528C155.464 21.1969 154.957 18.1148 154.957 18.1148L158.26 18.3628C158.26 18.3628 158.577 19.9504 159.486 21.4062C160.397 22.8672 161.828 22.9572 162.714 24.4334C164.267 27.0222 162.608 31.1517 162.608 31.1517L159.767 33.0745C159.767 33.0745 161.154 28.2688 159.6 25.68C158.714 24.2038 157.284 24.1137 156.373 22.6528Z" fill="#004F96"/>
<ellipse cx="1.12714" cy="1.09367" rx="1.12714" ry="1.09367" transform="matrix(0.928343 -0.371724 0.373609 0.927586 161.533 21.3724)" fill="#004F96"/>
<ellipse cx="0.375712" cy="0.364555" rx="0.375712" ry="0.364555" transform="matrix(0.928343 -0.371724 0.373609 0.927586 162.503 21.769)" fill="#004F96"/>
<path d="M228.771 22.8865L242.393 19.7703L235.562 33.2396L228.771 22.8865Z" fill="#BA0210"/>
<path d="M238.744 34.2939L242.393 19.7711L235.562 33.2404L238.744 34.2939Z" fill="#FF701E"/>
<ellipse cx="44" cy="21.9356" rx="15" ry="14.956" fill="#37328C" stroke="#FF701E" stroke-linejoin="round"/>
<ellipse cx="303" cy="27.9179" rx="6" ry="5.9824" fill="#FFA423" stroke="#B5007C" stroke-linejoin="round"/>
<path d="M163.232 303.814L158.896 312.571H169.83L163.232 303.814Z" fill="#00AEEF"/>
<path d="M168.609 298.452L163.377 304.35L169.782 312.571L177 308.192L168.609 298.452Z" fill="#FFA423"/>
<path d="M173.147 296.129L168.486 298.452L177 308.371L173.147 296.129Z" fill="#37328C"/>
<path d="M168.486 298.542L160.688 297.023L173.325 296.129L168.486 298.542Z" fill="#FF701E"/>
<path d="M158 303.278L160.778 297.022L168.575 298.542L163.288 304.439L158 303.278Z" fill="#78C143"/>
<path d="M159.003 312.571L158 303.278L163.377 304.27L159.003 312.571Z" fill="#004F96"/>
<path d="M217.984 176.301C212.096 176.173 209.664 173.101 209.664 165.677V86.1888H217.984V176.301ZM220.032 176.301V86.1888H228.352V165.677C228.352 173.101 225.92 176.173 220.032 176.301ZM257.904 86.1888V93.6128H238.96V86.1888H257.904ZM244.208 175.789V95.5328H252.656V175.789H244.208ZM276.347 85.8048V176.301C270.331 176.301 267.899 173.485 267.899 166.573V96.4288C267.899 88.8768 270.331 85.8048 276.347 85.8048ZM278.395 85.8048C284.411 85.9328 286.843 89.0048 286.843 96.4288V166.573C286.843 173.229 284.411 176.045 278.395 176.301V85.8048ZM297.829 175.789V86.1888H306.277V175.789H297.829ZM308.325 86.1888C314.213 86.3168 316.645 89.3888 316.645 96.8128V125.997C316.645 132.653 314.213 135.469 308.325 135.725V86.1888ZM327.634 175.789V86.1888H336.082V175.789H327.634ZM356.024 112.045L355.512 175.789H347.064L348.728 86.1888H365.24L366.904 175.789H358.456L357.944 112.045L357.688 93.4848H356.28L356.024 112.045ZM377.869 175.789V86.1888H386.317V175.789H377.869ZM388.365 86.1888C394.253 86.3168 396.685 89.3888 396.685 96.8128V175.789H388.365V86.1888Z" fill="#FFED00"/>
<path d="M468.664 175.789V86.1888H477.112V175.789H468.664ZM479.16 86.1888C485.048 86.3168 487.48 89.3888 487.48 96.8128V166.061C487.48 172.717 485.048 175.533 479.16 175.789V86.1888ZM516.306 86.1888L514.77 147.373H510.674V175.789H502.226V147.373H498.13L496.594 86.1888H505.042L505.81 125.869V138.669H507.73V125.869L507.858 86.1888H516.306ZM535.225 133.165C529.081 133.165 526.649 130.349 526.649 123.181V95.7888C526.649 88.6208 529.081 85.8048 535.225 85.8048V133.165ZM537.273 117.549V85.8048H537.401C543.417 85.8048 545.849 88.7488 545.849 95.9168V117.549H537.273ZM537.273 176.301V124.205C543.417 124.205 545.849 127.021 545.849 134.189V166.317C545.849 173.485 543.417 176.301 537.273 176.301ZM535.097 176.301C529.081 176.301 526.649 173.357 526.649 166.189V139.437H535.225V176.301H535.097ZM574.764 86.1888V93.6128H555.82V86.1888H574.764ZM561.068 175.789V95.5328H569.516V175.789H561.068ZM593.207 85.8048V176.301C587.191 176.301 584.759 173.485 584.759 166.573V96.4288C584.759 88.8768 587.191 85.8048 593.207 85.8048ZM595.255 85.8048C601.271 85.9328 603.703 89.0048 603.703 96.4288V166.573C603.703 173.229 601.271 176.045 595.255 176.301V85.8048ZM614.689 175.789V86.1888H623.137V175.789H614.689ZM625.185 86.1888C631.073 86.3168 633.505 89.3888 633.505 96.8128V125.997C633.505 132.653 631.073 135.469 625.185 135.725V86.1888ZM644.494 175.789V86.1888H652.942V175.789H644.494ZM672.884 112.045L672.372 175.789H663.924L665.588 86.1888H682.1L683.764 175.789H675.316L674.804 112.045L674.548 93.4848H673.14L672.884 112.045Z" fill="#FFED00"/>
<path d="M107 256.29C107 260.708 110.582 264.29 115 264.29C119.418 264.29 123 260.708 123 256.29C123 251.872 119.418 248.29 115 248.29C110.582 248.29 107 251.872 107 256.29ZM203 257.79C203.828 257.79 204.5 257.118 204.5 256.29C204.5 255.462 203.828 254.79 203 254.79V257.79ZM115 257.79H203V254.79H115V257.79Z" fill="#FFED00"/>
<path d="M248.074 268.325C248.613 267.997 249.074 267.653 249.457 267.294C249.848 266.935 250.168 266.536 250.418 266.099C250.668 265.669 250.852 265.188 250.969 264.657C251.086 264.118 251.145 263.509 251.145 262.829V246.974H254.859V262.161C254.859 262.974 254.824 263.716 254.754 264.388C254.684 265.052 254.566 265.661 254.402 266.216C254.246 266.778 254.031 267.294 253.758 267.763C253.492 268.231 253.16 268.677 252.762 269.099C252.371 269.521 251.906 269.927 251.367 270.317C250.836 270.708 250.219 271.103 249.516 271.501L248.074 268.325ZM277.863 246.974H281.801L290.66 265.29H286.758L285.293 262.208H274.594L273.176 265.29H269.262L277.863 246.974ZM283.828 259.149L279.867 250.829L276.012 259.149H283.828ZM311.121 260.755L303.117 246.974H307.324L312.961 257.392L318.527 246.974H322.734L314.836 260.731V265.29H311.121V260.755ZM337.547 246.974H353.145V250.231H341.262V253.888H351.785V256.946H341.262V262.044H353.391V265.29H337.547V246.974ZM370.371 259.841C371.035 260.216 371.707 260.556 372.387 260.86C373.074 261.157 373.785 261.411 374.52 261.622C375.254 261.825 376.023 261.981 376.828 262.091C377.641 262.2 378.504 262.255 379.418 262.255C380.52 262.255 381.457 262.185 382.23 262.044C383.004 261.896 383.633 261.696 384.117 261.446C384.609 261.188 384.965 260.884 385.184 260.532C385.41 260.181 385.523 259.798 385.523 259.384C385.523 258.72 385.246 258.196 384.691 257.813C384.137 257.423 383.281 257.228 382.125 257.228C381.617 257.228 381.082 257.263 380.52 257.333C379.957 257.396 379.387 257.466 378.809 257.544C378.238 257.622 377.672 257.696 377.109 257.767C376.555 257.829 376.031 257.86 375.539 257.86C374.719 257.86 373.93 257.755 373.172 257.544C372.422 257.333 371.754 257.017 371.168 256.595C370.59 256.173 370.129 255.646 369.785 255.013C369.441 254.38 369.27 253.642 369.27 252.798C369.27 252.298 369.336 251.802 369.469 251.31C369.609 250.817 369.828 250.349 370.125 249.903C370.43 249.45 370.82 249.032 371.297 248.649C371.773 248.259 372.348 247.923 373.02 247.642C373.699 247.36 374.48 247.142 375.363 246.985C376.254 246.821 377.266 246.739 378.398 246.739C379.219 246.739 380.043 246.786 380.871 246.88C381.699 246.966 382.504 247.091 383.285 247.255C384.074 247.419 384.832 247.618 385.559 247.853C386.285 248.079 386.961 248.333 387.586 248.614L385.957 251.614C385.441 251.388 384.887 251.181 384.293 250.993C383.699 250.798 383.078 250.63 382.43 250.489C381.781 250.349 381.109 250.239 380.414 250.161C379.727 250.075 379.023 250.032 378.305 250.032C377.281 250.032 376.438 250.106 375.773 250.255C375.117 250.403 374.594 250.595 374.203 250.829C373.812 251.056 373.539 251.313 373.383 251.603C373.234 251.884 373.16 252.165 373.16 252.446C373.16 252.993 373.406 253.442 373.898 253.794C374.391 254.138 375.141 254.31 376.148 254.31C376.555 254.31 377.02 254.282 377.543 254.228C378.074 254.165 378.629 254.099 379.207 254.028C379.793 253.958 380.387 253.896 380.988 253.841C381.598 253.778 382.188 253.747 382.758 253.747C383.836 253.747 384.789 253.868 385.617 254.11C386.453 254.353 387.152 254.7 387.715 255.153C388.277 255.599 388.703 256.142 388.992 256.782C389.281 257.415 389.426 258.126 389.426 258.915C389.426 259.97 389.18 260.911 388.688 261.739C388.203 262.56 387.508 263.255 386.602 263.825C385.703 264.388 384.617 264.817 383.344 265.114C382.07 265.403 380.652 265.548 379.09 265.548C378.059 265.548 377.051 265.481 376.066 265.349C375.082 265.224 374.137 265.044 373.23 264.81C372.332 264.567 371.473 264.282 370.652 263.954C369.84 263.618 369.086 263.251 368.391 262.853L370.371 259.841ZM405.504 246.974H409.219V251.755H420.609V246.974H424.336V265.29H420.609V254.931H409.219V265.29H405.504V246.974ZM462.363 259.841C463.027 260.216 463.699 260.556 464.379 260.86C465.066 261.157 465.777 261.411 466.512 261.622C467.246 261.825 468.016 261.981 468.82 262.091C469.633 262.2 470.496 262.255 471.41 262.255C472.512 262.255 473.449 262.185 474.223 262.044C474.996 261.896 475.625 261.696 476.109 261.446C476.602 261.188 476.957 260.884 477.176 260.532C477.402 260.181 477.516 259.798 477.516 259.384C477.516 258.72 477.238 258.196 476.684 257.813C476.129 257.423 475.273 257.228 474.117 257.228C473.609 257.228 473.074 257.263 472.512 257.333C471.949 257.396 471.379 257.466 470.801 257.544C470.23 257.622 469.664 257.696 469.102 257.767C468.547 257.829 468.023 257.86 467.531 257.86C466.711 257.86 465.922 257.755 465.164 257.544C464.414 257.333 463.746 257.017 463.16 256.595C462.582 256.173 462.121 255.646 461.777 255.013C461.434 254.38 461.262 253.642 461.262 252.798C461.262 252.298 461.328 251.802 461.461 251.31C461.602 250.817 461.82 250.349 462.117 249.903C462.422 249.45 462.812 249.032 463.289 248.649C463.766 248.259 464.34 247.923 465.012 247.642C465.691 247.36 466.473 247.142 467.355 246.985C468.246 246.821 469.258 246.739 470.391 246.739C471.211 246.739 472.035 246.786 472.863 246.88C473.691 246.966 474.496 247.091 475.277 247.255C476.066 247.419 476.824 247.618 477.551 247.853C478.277 248.079 478.953 248.333 479.578 248.614L477.949 251.614C477.434 251.388 476.879 251.181 476.285 250.993C475.691 250.798 475.07 250.63 474.422 250.489C473.773 250.349 473.102 250.239 472.406 250.161C471.719 250.075 471.016 250.032 470.297 250.032C469.273 250.032 468.43 250.106 467.766 250.255C467.109 250.403 466.586 250.595 466.195 250.829C465.805 251.056 465.531 251.313 465.375 251.603C465.227 251.884 465.152 252.165 465.152 252.446C465.152 252.993 465.398 253.442 465.891 253.794C466.383 254.138 467.133 254.31 468.141 254.31C468.547 254.31 469.012 254.282 469.535 254.228C470.066 254.165 470.621 254.099 471.199 254.028C471.785 253.958 472.379 253.896 472.98 253.841C473.59 253.778 474.18 253.747 474.75 253.747C475.828 253.747 476.781 253.868 477.609 254.11C478.445 254.353 479.145 254.7 479.707 255.153C480.27 255.599 480.695 256.142 480.984 256.782C481.273 257.415 481.418 258.126 481.418 258.915C481.418 259.97 481.172 260.911 480.68 261.739C480.195 262.56 479.5 263.255 478.594 263.825C477.695 264.388 476.609 264.817 475.336 265.114C474.062 265.403 472.645 265.548 471.082 265.548C470.051 265.548 469.043 265.481 468.059 265.349C467.074 265.224 466.129 265.044 465.223 264.81C464.324 264.567 463.465 264.282 462.645 263.954C461.832 263.618 461.078 263.251 460.383 262.853L462.363 259.841ZM503.754 246.974H507.691L516.551 265.29H512.648L511.184 262.208H500.484L499.066 265.29H495.152L503.754 246.974ZM509.719 259.149L505.758 250.829L501.902 259.149H509.719ZM530.285 256.021C530.285 254.716 530.531 253.501 531.023 252.376C531.516 251.243 532.227 250.263 533.156 249.435C534.094 248.599 535.234 247.942 536.578 247.466C537.93 246.989 539.457 246.751 541.16 246.751C542.652 246.751 544.02 246.903 545.262 247.208C546.512 247.505 547.672 247.962 548.742 248.579L547.031 251.392C546.711 251.181 546.34 250.993 545.918 250.829C545.504 250.665 545.059 250.528 544.582 250.419C544.113 250.302 543.625 250.212 543.117 250.149C542.617 250.087 542.121 250.056 541.629 250.056C540.441 250.056 539.383 250.204 538.453 250.501C537.523 250.79 536.738 251.2 536.098 251.731C535.465 252.255 534.98 252.884 534.645 253.618C534.316 254.345 534.152 255.146 534.152 256.021C534.152 256.927 534.324 257.759 534.668 258.517C535.012 259.274 535.508 259.931 536.156 260.485C536.812 261.032 537.609 261.462 538.547 261.774C539.492 262.079 540.559 262.231 541.746 262.231C542.285 262.231 542.82 262.192 543.352 262.114C543.883 262.036 544.395 261.931 544.887 261.798C545.387 261.657 545.867 261.493 546.328 261.306C546.789 261.11 547.219 260.899 547.617 260.673L549.328 263.485C548.328 264.126 547.172 264.63 545.859 264.997C544.547 265.356 543.152 265.536 541.676 265.536C539.793 265.536 538.141 265.294 536.719 264.81C535.297 264.317 534.109 263.646 533.156 262.794C532.203 261.935 531.484 260.927 531 259.771C530.523 258.606 530.285 257.356 530.285 256.021ZM565.418 246.974H569.133V251.755H580.523V246.974H584.25V265.29H580.523V254.931H569.133V265.29H565.418V246.974ZM601.453 246.974H608.168C610.129 246.974 611.832 247.185 613.277 247.606C614.723 248.028 615.918 248.634 616.863 249.423C617.816 250.204 618.523 251.157 618.984 252.282C619.453 253.399 619.688 254.657 619.688 256.056C619.688 257.384 619.457 258.614 618.996 259.747C618.535 260.872 617.832 261.849 616.887 262.677C615.941 263.497 614.746 264.142 613.301 264.61C611.855 265.071 610.152 265.302 608.191 265.302L601.453 265.29V246.974ZM609.082 262.079C610.191 262.079 611.164 261.938 612 261.657C612.836 261.368 613.531 260.962 614.086 260.438C614.648 259.915 615.07 259.282 615.352 258.54C615.633 257.798 615.773 256.97 615.773 256.056C615.773 255.157 615.633 254.349 615.352 253.63C615.07 252.903 614.648 252.29 614.086 251.79C613.531 251.282 612.836 250.892 612 250.618C611.164 250.345 610.191 250.208 609.082 250.208H605.168V262.079H609.082ZM635.414 246.974H651.012V250.231H639.129V253.888H649.652V256.946H639.129V262.044H651.258V265.29H635.414V246.974ZM664.934 246.974H669.047L674.801 260.942L680.555 246.974H684.668L676.641 265.29H672.961L664.934 246.974Z" fill="#FFED00"/>
<ellipse cx="152.5" cy="222.845" rx="9.5" ry="9.47214" fill="#BA0210"/>
<ellipse cx="150.6" cy="221.266" rx="3.8" ry="4.10459" fill="#D596E7"/>
<ellipse cx="6.4828" cy="6.47661" rx="6.4828" ry="6.47661" transform="matrix(0.81472 -0.579855 0.582116 0.813106 60 209.923)" fill="#FFA423" stroke="#B5007C" stroke-linejoin="round"/>
<ellipse cx="2.59312" cy="2.59064" rx="2.59312" ry="2.59064" transform="matrix(0.81472 -0.579855 0.582116 0.813106 105 175.5)" fill="#048045" stroke="#D596E7" stroke-linejoin="round"/>
<path d="M86.3478 139.927L40.2689 141.567L77.873 112.676L86.3478 139.927Z" fill="#D596E7"/>
<path d="M69.2783 108.859L40.2686 141.566L77.8726 112.675L69.2783 108.859Z" fill="#52AE32"/>
<ellipse cx="8.00296" cy="7.76238" rx="8.00296" ry="7.76238" transform="matrix(0.81472 -0.579855 0.582116 0.813106 136 105)" fill="#37328C" stroke="#FF701E" stroke-linejoin="round"/>
</svg>
